<svg width="600" height="600" viewBox="0 0 200 200" xmlns="http://www.w3.org/2000/svg">
<path d="M100,10 Q120,5 140,20 Q160,35 170,50 Q180,65 170,80 Q160,95 140,110 Q120,125 100,130 Q80,135 60,120 Q40,105 30,90 Q20,75 30,60 Q40,45 60,30 Q80,15 100,10"
        fill="#d9cae5" />
<path fill="#794D9B" d="M41.9,-41C57.7,-36.7,76.2,-26.7,81.1,-12.3C86,2,77.2,20.8,64.9,33.2C52.6,45.5,36.8,51.6,21.9,54.6C6.9,57.7,-7.1,57.9,-22,54.9C-37,51.9,-52.9,45.8,-61.7,34C-70.5,22.1,-72.3,4.5,-69.2,-12.1C-66.1,-28.7,-58.2,-44.3,-45.9,-49.2C-33.5,-54,-16.8,-48.1,-1.9,-45.9C13.1,-43.7,26.1,-45.2,41.9,-41Z" transform="translate(100 100)"></path>
</svg>